# Blender 3.6.2
# www.blender.org
mtllib Szafa.mtl
o closet_001
v 0.022933 1.463086 0.296390
v 0.594568 1.463086 0.296389
v 0.022933 1.904951 0.296389
v 0.594568 1.904951 0.296389
v 0.594568 1.904951 0.339672
v 0.594568 1.463086 0.339672
v 0.022933 1.904951 0.339672
v 0.022933 1.463086 0.339672
v 0.022933 2.366706 0.296389
v 0.594573 2.366706 0.296389
v 0.594573 2.366706 0.339672
v 0.022933 2.366706 0.339674
v 0.022933 2.366589 0.296389
v 0.594571 2.366590 0.296389
v 0.594571 2.366590 0.339672
v 0.022933 2.366589 0.339674
v 0.022933 1.913097 0.296389
v 0.594568 1.913097 0.296389
v 0.594568 1.913097 0.339672
v 0.022933 1.913097 0.339672
v 0.022933 1.012886 0.296390
v 0.594568 1.012887 0.296390
v 0.022933 1.454752 0.296390
v 0.594568 1.454752 0.296389
v 0.594568 1.454752 0.339672
v 0.594568 1.012887 0.339672
v 0.022933 1.454752 0.339672
v 0.022933 1.012886 0.339672
v 0.022928 0.562688 0.296390
v 0.594569 0.562688 0.296390
v 0.022933 1.004552 0.296390
v 0.594568 1.004553 0.296390
v 0.594568 1.004553 0.339672
v 0.594569 0.562688 0.339672
v 0.022933 1.004552 0.339672
v 0.022928 0.562688 0.339672
v 0.022931 0.100934 0.296390
v 0.594571 0.100934 0.296390
v 0.022931 0.100934 0.339672
v 0.594571 0.100934 0.339672
v 0.022928 0.101050 0.296390
v 0.594569 0.101050 0.296390
v 0.594569 0.101050 0.339672
v 0.022928 0.101050 0.339672
v 0.022930 0.554543 0.296390
v 0.594571 0.554543 0.296390
v 0.594571 0.554543 0.339672
v 0.022930 0.554543 0.339672
v -0.020387 0.000000 0.320526
v 0.020391 0.000000 0.320526
v -0.020385 2.647522 0.320525
v 0.020393 2.647522 0.320525
v -0.020385 2.647522 -0.306795
v 0.020393 2.647522 -0.306795
v -0.020387 -0.000000 -0.306795
v 0.020391 -0.000000 -0.306795
v 0.592032 0.000000 0.320525
v 0.632804 0.000000 0.320525
v 0.592032 2.688297 0.320525
v 0.632803 2.688297 0.320525
v 0.592032 2.688297 -0.306795
v 0.632803 2.688297 -0.306796
v 0.592032 -0.000000 -0.306795
v 0.632804 -0.000000 -0.306795
v -0.632802 -0.000000 0.320526
v -0.592028 -0.000000 0.320526
v -0.632802 2.647522 0.320525
v -0.592026 2.647522 0.320525
v -0.632802 2.647522 -0.306795
v -0.592026 2.647522 -0.306795
v -0.632802 -0.000000 -0.306795
v -0.592028 -0.000000 -0.306795
v -0.632802 2.688297 0.320525
v -0.632802 2.647522 0.320525
v 0.020393 2.688297 0.320525
v 0.020393 2.647522 0.320525
v 0.020393 2.688297 -0.306795
v 0.020393 2.647522 -0.306795
v -0.632802 2.688297 -0.306795
v -0.632802 2.647522 -0.306795
v -0.595929 0.108209 0.255832
v -0.024286 0.108209 0.255831
v -0.595930 2.359431 0.255832
v -0.024284 2.359430 0.255832
v -0.595929 0.108209 0.299107
v -0.024286 0.108209 0.299107
v -0.024284 2.359430 0.299107
v -0.595930 2.359431 0.299107
v -0.619184 0.108209 0.306798
v -0.619184 -0.000000 0.306798
v 0.619185 0.108209 0.306797
v 0.619185 0.000000 0.306797
v -0.619184 0.108208 -0.306795
v 0.619185 0.108208 -0.306795
v -0.619184 2.400208 0.306797
v -0.619184 2.359431 0.306797
v 0.619185 2.400206 0.306797
v 0.619185 2.359430 0.306797
v 0.619185 2.400206 -0.293070
v 0.619185 2.359430 -0.293070
v -0.619184 2.400208 -0.293067
v -0.619184 2.359431 -0.293067
v -0.638593 -0.000000 -0.306795
v 0.638595 -0.000000 -0.306795
v -0.638584 2.688297 -0.306795
v 0.638594 2.688297 -0.306796
v 0.272794 1.676123 0.367309
v 0.352567 1.676123 0.367309
v 0.272791 1.699960 0.367309
v 0.352564 1.699960 0.367309
v 0.206324 1.699960 0.323487
v 0.419031 1.699960 0.323487
v 0.206326 1.676123 0.323487
v 0.419034 1.676123 0.323487
v 0.270281 1.676123 0.381409
v 0.355076 1.676123 0.381409
v 0.355074 1.699960 0.381409
v 0.270281 1.699960 0.381409
v 0.423795 1.676123 0.336107
v 0.423792 1.699960 0.336107
v 0.201566 1.676123 0.336107
v 0.201563 1.699960 0.336107
v -0.085168 1.271762 0.327054
v -0.085168 1.191987 0.327054
v -0.061330 1.271762 0.327054
v -0.061330 1.191987 0.327054
v -0.061330 1.338230 0.283234
v -0.061330 1.125519 0.283234
v -0.085163 1.338230 0.283234
v -0.085163 1.125519 0.283234
v -0.085168 1.274272 0.341155
v -0.085168 1.189476 0.341155
v -0.061330 1.189476 0.341158
v -0.061330 1.274272 0.341158
v -0.085170 1.120761 0.295852
v -0.061330 1.120761 0.295852
v -0.085168 1.342988 0.295852
v -0.061330 1.342988 0.295852
v 0.272791 0.307624 0.367309
v 0.352564 0.307624 0.367309
v 0.272791 0.331461 0.367309
v 0.352564 0.331461 0.367309
v 0.206324 0.331461 0.323487
v 0.419032 0.331461 0.323487
v 0.206324 0.307624 0.323487
v 0.419032 0.307624 0.323487
v 0.270282 0.307624 0.381409
v 0.355074 0.307624 0.381409
v 0.355074 0.331461 0.381409
v 0.270282 0.331461 0.381409
v 0.423792 0.307624 0.336108
v 0.423792 0.331461 0.336108
v 0.201563 0.307624 0.336108
v 0.201563 0.331461 0.336108
v 0.272791 1.219956 0.367309
v 0.352564 1.219956 0.367309
v 0.272791 1.243793 0.367309
v 0.352564 1.243793 0.367309
v 0.206324 1.243793 0.323487
v 0.419031 1.243793 0.323487
v 0.206324 1.219956 0.323487
v 0.419031 1.219956 0.323487
v 0.270281 1.219956 0.381409
v 0.355074 1.219956 0.381409
v 0.355074 1.243793 0.381409
v 0.270281 1.243793 0.381409
v 0.423792 1.219956 0.336108
v 0.423792 1.243793 0.336108
v 0.201563 1.219956 0.336108
v 0.201563 1.243793 0.336108
v 0.272794 0.763790 0.367309
v 0.352567 0.763790 0.367309
v 0.272791 0.787627 0.367309
v 0.352564 0.787627 0.367309
v 0.206324 0.787627 0.323487
v 0.419031 0.787627 0.323487
v 0.206326 0.763790 0.323487
v 0.419034 0.763790 0.323487
v 0.270281 0.763790 0.381409
v 0.355076 0.763790 0.381409
v 0.355074 0.787627 0.381409
v 0.270281 0.787627 0.381409
v 0.423795 0.763790 0.336108
v 0.423792 0.787627 0.336108
v 0.201566 0.763790 0.336108
v 0.201563 0.787627 0.336108
v 0.272791 2.132289 0.367309
v 0.352564 2.132289 0.367309
v 0.272793 2.156126 0.367309
v 0.352566 2.156126 0.367309
v 0.206326 2.156126 0.323487
v 0.419034 2.156126 0.323487
v 0.206324 2.132289 0.323487
v 0.419031 2.132289 0.323487
v 0.270281 2.132289 0.381409
v 0.355074 2.132289 0.381409
v 0.355076 2.156126 0.381409
v 0.270284 2.156126 0.381409
v 0.423792 2.132289 0.336107
v 0.423794 2.156126 0.336107
v 0.201563 2.132289 0.336107
v 0.201565 2.156126 0.336107
v -0.638593 -0.000000 -0.347499
v 0.638595 -0.000000 -0.347499
v 0.638594 2.688297 -0.347500
v -0.638584 2.688297 -0.347500
v -0.619184 -0.000000 -0.306797
v 0.619185 -0.000000 -0.306798
vn 1.0000 -0.0000 -0.0000
vn -0.0000 -0.0000 1.0000
vn -1.0000 -0.0000 -0.0000
vn -0.0000 1.0000 -0.0000
vn -0.0000 0.0002 -1.0000
vn 0.9999 -0.0103 -0.0000
vn 0.9998 -0.0205 -0.0000
vn -0.0000 -0.0001 1.0000
vn -0.0000 -0.0002 1.0000
vn -0.0000 0.0001 -1.0000
vn 0.9998 0.0210 -0.0000
vn 0.9999 0.0105 -0.0000
vn -0.9999 -0.0104 -0.0000
vn -0.9998 -0.0209 -0.0000
vn -0.0000 -1.0000 -0.0000
vn -0.0000 -0.0000 -1.0000
vn -0.2873 -0.0000 0.9578
vn 0.2873 -0.0000 0.9578
vn 0.5504 0.0001 0.8349
vn -0.5504 -0.0000 0.8349
vn 0.2873 -0.0000 -0.9578
vn 0.2874 -0.0000 -0.9578
vn -0.2873 -0.0000 -0.9578
vn -0.2874 -0.0000 -0.9578
vn -0.5504 -0.0001 -0.8349
vn 0.5504 0.0001 -0.8349
vn -0.0001 0.2873 0.9578
vn -0.0001 -0.2873 0.9578
vn -0.0000 -0.5504 0.8349
vn -0.0000 0.5504 0.8349
vn -0.0000 -0.2873 -0.9578
vn -0.0000 0.2873 -0.9578
vn -0.0000 0.5504 -0.8349
vn -0.0000 -0.5504 -0.8349
vn -1.0000 -0.0000 -0.0001
vn -1.0000 0.0001 -0.0001
vn -1.0000 0.0001 -0.0002
vn -1.0000 -0.0001 -0.0002
vn 0.5504 -0.0000 0.8349
vn -0.5504 -0.0000 -0.8349
vn 0.5504 -0.0000 -0.8349
vn 0.5504 -0.0001 0.8349
vn -0.5504 0.0001 0.8349
vn -0.5504 0.0001 -0.8349
vn 0.5504 -0.0001 -0.8349
vt 0.872731 0.067343
vt 0.872731 0.067343
vt 0.872732 0.067343
vt 0.872732 0.067343
vt 0.872732 0.067343
vt 0.872732 0.067343
vt 0.872731 0.067343
vt 0.872732 0.067343
vt 0.872732 0.067343
vt 0.872731 0.067343
vt 0.872732 0.067343
vt 0.872732 0.067343
vt 0.872731 0.067343
vt 0.872731 0.067343
vt 0.872732 0.067343
vt 0.872732 0.067343
vt 0.872732 0.067343
vt 0.872732 0.067343
vt 0.872731 0.067343
vt 0.872732 0.067343
vt 0.872732 0.067343
vt 0.872732 0.067344
vt 0.872731 0.067344
vt 0.872731 0.067344
vt 0.872732 0.067344
vt 0.894537 0.794496
vt 0.894440 0.794496
vt 0.894070 0.791513
vt 0.894238 0.791513
vt 0.896412 0.796785
vt 0.896412 0.796448
vt 0.896509 0.796448
vt 0.896702 0.796785
vt 0.896605 0.796448
vt 0.896702 0.796448
vt 0.894406 0.791513
vt 0.894070 0.790927
vt 0.894238 0.792098
vt 0.894070 0.792098
vt 0.896509 0.796785
vt 0.896605 0.796785
vt 0.894406 0.792098
vt 0.893902 0.792098
vt 0.893902 0.791513
vt 0.896750 0.796785
vt 0.896364 0.796785
vt 0.896364 0.795439
vt 0.896750 0.795439
vt 0.871193 0.866035
vt 0.866958 0.866035
vt 0.866958 0.861800
vt 0.871193 0.861800
vt 0.862723 0.866035
vt 0.862723 0.861800
vt 0.875427 0.866035
vt 0.875427 0.861800
vt 0.896943 0.797219
vt 0.896565 0.797219
vt 0.896565 0.796840
vt 0.896943 0.796840
s 1
usemtl Material
f 2/1/1 4/2/1 5/2/1 6/1/1
f 6/1/2 5/2/2 7/3/2 8/4/2
f 3/5/3 1/6/3 8/4/3 7/3/3
f 5/2/4 4/2/4 3/5/4 7/3/4
f 10/7/4 9/8/4 12/8/4 11/7/4
f 14/7/5 13/9/5 9/8/5 10/7/5
f 15/7/6 14/7/6 10/7/7 11/7/7
f 16/9/8 15/7/8 11/7/9 12/8/9
f 9/8/3 13/9/3 16/9/3 12/8/3
f 18/10/1 14/7/6 15/7/6 19/10/1
f 19/10/2 15/7/8 16/9/8 20/11/2
f 13/9/3 17/12/3 20/11/3 16/9/3
f 22/13/1 24/14/1 25/14/1 26/13/1
f 26/13/2 25/14/2 27/15/2 28/16/2
f 23/17/3 21/18/3 28/16/3 27/15/3
f 25/14/4 24/14/4 23/17/4 27/15/4
f 30/19/1 32/13/1 33/13/1 34/19/1
f 34/19/2 33/13/2 35/16/2 36/20/2
f 31/18/3 29/21/3 36/20/3 35/16/3
f 33/13/4 32/13/4 31/18/4 35/16/4
f 39/22/9 40/23/9 43/24/8 44/25/8
f 37/22/10 41/25/10 42/24/10 38/23/10
f 38/23/11 42/24/12 43/24/12 40/23/11
f 44/25/13 41/25/13 37/22/14 39/22/14
f 42/24/12 46/19/1 47/19/1 43/24/12
f 43/24/8 47/19/2 48/20/2 44/25/8
f 45/21/3 41/25/13 44/25/13 48/20/3
f 47/19/4 46/19/4 45/21/4 48/20/4
f 49/26/2 50/27/2 52/28/2 51/29/2
f 50/27/1 56/30/1 54/31/1 52/32/1
f 55/33/3 49/26/3 51/34/3 53/35/3
f 57/26/2 58/27/2 60/28/2 59/29/2
f 58/27/1 64/30/1 62/31/1 60/32/1
f 63/33/3 57/26/3 59/34/3 61/35/3
f 61/36/4 59/29/4 60/28/4 62/37/4
f 65/26/2 66/27/2 68/28/2 67/29/2
f 66/27/1 72/30/1 70/31/1 68/32/1
f 71/33/3 65/26/3 67/34/3 69/35/3
f 73/38/2 74/39/2 76/28/2 75/29/2
f 74/40/15 80/30/15 78/31/15 76/32/15
f 79/33/4 73/41/4 75/34/4 77/35/4
f 73/38/3 79/42/3 80/43/3 74/39/3
f 77/36/1 75/29/1 76/28/1 78/44/1
f 85/22/2 86/23/2 87/7/2 88/8/2
f 81/22/16 83/8/16 84/7/16 82/23/16
f 82/23/1 84/7/1 87/7/1 86/23/1
f 84/7/4 83/8/4 88/8/4 87/7/4
f 83/8/3 81/22/3 85/22/3 88/8/3
f 89/38/2 90/39/2 92/28/2 91/29/2
f 89/45/4 91/46/4 94/47/4 93/48/4
f 95/38/2 96/39/2 98/28/2 97/29/2
f 96/40/15 102/30/15 100/31/15 98/32/15
f 101/33/4 95/41/4 97/34/4 99/35/4
f 103/41/2 104/40/2 106/32/2 105/34/2
f 115/49/17 116/50/18 117/51/18 118/52/17
f 116/50/18 119/53/19 120/54/19 117/51/18
f 121/55/20 115/49/17 118/52/17 122/56/20
f 107/49/21 109/52/22 110/51/23 108/50/24
f 108/50/24 110/51/23 112/54/25 114/53/25
f 113/55/26 111/56/26 109/52/22 107/49/21
f 107/49/15 108/50/15 116/50/15 115/49/15
f 110/51/4 109/52/4 118/52/4 117/51/4
f 108/50/15 114/53/15 119/53/15 116/50/15
f 112/54/4 110/51/4 117/51/4 120/54/4
f 113/55/15 107/49/15 115/49/15 121/55/15
f 109/52/4 111/56/4 122/56/4 118/52/4
f 131/49/27 132/50/28 133/51/28 134/52/27
f 132/50/28 135/53/29 136/54/29 133/51/28
f 137/55/30 131/49/27 134/52/27 138/56/30
f 123/49/31 125/52/31 126/51/32 124/50/32
f 124/50/32 126/51/32 128/54/33 130/53/33
f 129/55/34 127/56/34 125/52/31 123/49/31
f 123/49/35 124/50/36 132/50/36 131/49/35
f 126/51/1 125/52/1 134/52/1 133/51/1
f 124/50/36 130/53/37 135/53/37 132/50/36
f 128/54/1 126/51/1 133/51/1 136/54/1
f 129/55/38 123/49/35 131/49/35 137/55/38
f 125/52/1 127/56/1 138/56/1 134/52/1
f 147/49/17 148/50/18 149/51/18 150/52/17
f 148/50/18 151/53/39 152/54/39 149/51/18
f 153/55/20 147/49/17 150/52/17 154/56/20
f 139/49/21 141/52/21 142/51/23 140/50/23
f 140/50/23 142/51/23 144/54/40 146/53/40
f 145/55/41 143/56/41 141/52/21 139/49/21
f 139/49/15 140/50/15 148/50/15 147/49/15
f 142/51/4 141/52/4 150/52/4 149/51/4
f 140/50/15 146/53/15 151/53/15 148/50/15
f 144/54/4 142/51/4 149/51/4 152/54/4
f 145/55/15 139/49/15 147/49/15 153/55/15
f 141/52/4 143/56/4 154/56/4 150/52/4
f 163/49/17 164/50/18 165/51/18 166/52/17
f 164/50/18 167/53/39 168/54/39 165/51/18
f 169/55/20 163/49/17 166/52/17 170/56/20
f 155/49/21 157/52/21 158/51/23 156/50/23
f 156/50/23 158/51/23 160/54/40 162/53/40
f 161/55/41 159/56/41 157/52/21 155/49/21
f 155/49/15 156/50/15 164/50/15 163/49/15
f 158/51/4 157/52/4 166/52/4 165/51/4
f 156/50/15 162/53/15 167/53/15 164/50/15
f 160/54/4 158/51/4 165/51/4 168/54/4
f 161/55/15 155/49/15 163/49/15 169/55/15
f 157/52/4 159/56/4 170/56/4 166/52/4
f 179/49/17 180/50/18 181/51/18 182/52/17
f 180/50/18 183/53/19 184/54/19 181/51/18
f 185/55/20 179/49/17 182/52/17 186/56/20
f 171/49/21 173/52/22 174/51/23 172/50/24
f 172/50/24 174/51/23 176/54/25 178/53/25
f 177/55/26 175/56/26 173/52/22 171/49/21
f 171/49/15 172/50/15 180/50/15 179/49/15
f 174/51/4 173/52/4 182/52/4 181/51/4
f 172/50/15 178/53/15 183/53/15 180/50/15
f 176/54/4 174/51/4 181/51/4 184/54/4
f 177/55/15 171/49/15 179/49/15 185/55/15
f 173/52/4 175/56/4 186/56/4 182/52/4
f 195/49/17 196/50/18 197/51/18 198/52/17
f 196/50/18 199/53/42 200/54/42 197/51/18
f 201/55/43 195/49/17 198/52/17 202/56/43
f 187/49/22 189/52/21 190/51/24 188/50/23
f 188/50/23 190/51/24 192/54/44 194/53/44
f 193/55/45 191/56/45 189/52/21 187/49/22
f 187/49/15 188/50/15 196/50/15 195/49/15
f 190/51/4 189/52/4 198/52/4 197/51/4
f 188/50/15 194/53/15 199/53/15 196/50/15
f 192/54/4 190/51/4 197/51/4 200/54/4
f 193/55/15 187/49/15 195/49/15 201/55/15
f 189/52/4 191/56/4 202/56/4 198/52/4
f 203/41/16 206/34/16 205/32/16 204/40/16
f 106/32/4 205/32/4 206/34/4 105/34/4
f 105/34/3 206/34/3 203/41/3 103/41/3
f 103/41/15 203/41/15 204/40/15 104/40/15
f 104/40/1 204/40/1 205/32/1 106/32/1
f 72/30/15 66/27/15 65/26/15 71/33/15
f 64/30/15 58/27/15 57/26/15 63/33/15
f 38/23/15 40/23/15 39/22/15 37/22/15
f 56/30/15 50/27/15 49/26/15 55/33/15
f 92/57/15 90/58/15 207/59/15 208/60/15
