# Blender v3.6.2 OBJ File: 'Słupek.blend'
# www.blender.org
mtllib Słupek.mtl
o closet_002_Mesh.6403
v 0.178187 0.770477 0.123821
v -0.178189 0.770477 0.123821
v 0.178188 0.134583 0.123821
v -0.178189 0.134583 0.123821
v 0.178187 1.899821 0.123821
v -0.178190 1.899821 0.123821
v 0.178187 1.263927 0.123821
v -0.178190 1.263927 0.123821
v -0.132242 1.395884 0.117779
v -0.132242 1.396054 0.149569
v -0.100450 1.395884 0.117779
v -0.100450 1.396054 0.149569
v -0.132242 1.364094 0.117949
v -0.132242 1.364264 0.149740
v -0.100450 1.364094 0.117949
v -0.100450 1.364264 0.149740
v -0.132242 0.687260 0.117780
v -0.132242 0.687430 0.149569
v -0.100450 0.687260 0.117780
v -0.100450 0.687430 0.149569
v -0.132242 0.655470 0.117949
v -0.132242 0.655640 0.149740
v -0.100450 0.655470 0.117949
v -0.100450 0.655640 0.149740
v 0.199960 1.961282 -0.125145
v -0.199957 1.961282 -0.125145
v -0.179195 1.230569 0.122811
v 0.179193 1.230569 0.122811
v 0.179193 0.843625 0.122811
v 0.199960 0.112912 -0.125145
v -0.199957 0.112912 -0.125145
v -0.179195 0.843625 0.122811
v 0.197201 0.000000 0.120286
v -0.197203 -0.000000 0.120286
v -0.197203 -0.000000 0.087288
v 0.197201 0.000000 0.087288
v 0.165790 0.000000 0.120286
v -0.165787 -0.000000 0.120286
v -0.165787 -0.000000 0.087288
v 0.165790 0.000000 0.087288
v -0.165787 0.121315 0.087288
v -0.197203 0.121315 0.087288
v -0.197203 0.121315 0.120286
v 0.165790 0.121315 0.120286
v 0.165790 0.121315 0.087288
v 0.197201 0.121315 0.120286
v 0.197201 0.121315 0.087288
v -0.165787 0.121315 0.120286
v 0.199960 1.961282 0.122811
v -0.199957 1.961282 0.122811
v 0.199960 0.112912 0.122811
v -0.199957 0.112912 0.122811
v 0.179193 1.230569 -0.115468
v -0.179195 1.230569 -0.115468
v 0.179193 0.843625 -0.115468
v -0.179195 0.843625 -0.115468
v 0.197201 0.000000 -0.087288
v -0.197203 -0.000000 -0.087287
v -0.197203 -0.000000 -0.120286
v 0.197201 0.000000 -0.120286
v 0.165790 0.000000 -0.087288
v -0.165787 -0.000000 -0.087287
v -0.165787 -0.000000 -0.120286
v 0.165790 0.000000 -0.120286
v -0.165787 0.121315 -0.120286
v -0.197203 0.121315 -0.120286
v -0.197203 0.121315 -0.087287
v 0.165790 0.121315 -0.087288
v 0.165790 0.121315 -0.120286
v 0.197201 0.121315 -0.087288
v 0.197201 0.121315 -0.120286
v -0.165787 0.121315 -0.087287
vt 0.955109 0.399726
vt 0.955109 0.401388
vt 0.956057 0.401388
vt 0.956057 0.399726
vt 0.955109 0.401388
vt 0.955109 0.403051
vt 0.956057 0.403051
vt 0.956057 0.401388
vt 0.943413 0.231951
vt 0.943413 0.231870
vt 0.943494 0.231870
vt 0.943494 0.231951
vt 0.942705 0.233658
vt 0.942616 0.233658
vt 0.942616 0.233578
vt 0.942705 0.233578
vt 0.943521 0.233604
vt 0.943521 0.233684
vt 0.943440 0.233684
vt 0.943440 0.233604
vt 0.942705 0.233738
vt 0.942616 0.233738
vt 0.942616 0.233658
vt 0.942705 0.233658
vt 0.943413 0.232166
vt 0.943413 0.232086
vt 0.943494 0.232086
vt 0.943494 0.232166
vt 0.943494 0.232006
vt 0.943494 0.232086
vt 0.943413 0.232086
vt 0.943413 0.232006
vt 0.942616 0.233658
vt 0.942527 0.233658
vt 0.943024 0.233631
vt 0.942616 0.233578
vt 0.942527 0.233738
vt 0.942983 0.233671
vt 0.942616 0.233658
vt 0.942616 0.233738
vt 0.943521 0.233764
vt 0.943440 0.233764
vt 0.970066 0.582528
vt 0.969505 0.583025
vt 0.969505 0.582458
vt 0.970066 0.581394
vt 0.969796 0.582871
vt 0.969796 0.581737
vt 0.968518 0.579769
vt 0.968518 0.580336
vt 0.970066 0.581394
vt 0.970885 0.581394
vt 0.970885 0.580196
vt 0.970066 0.580196
vt 0.967240 0.577800
vt 0.967240 0.583522
vt 0.968944 0.583522
vt 0.968944 0.577800
vt 0.966629 0.576420
vt 0.966742 0.576420
vt 0.966742 0.576796
vt 0.966629 0.576796
vt 0.967751 0.576077
vt 0.967864 0.576077
vt 0.967864 0.576452
vt 0.967751 0.576452
vt 0.967864 0.576828
vt 0.967751 0.576828
vt 0.967751 0.576452
vt 0.967864 0.576452
vt 0.967963 0.576452
vt 0.967864 0.576452
vt 0.967864 0.576077
vt 0.967963 0.576077
vt 0.966742 0.576420
vt 0.966856 0.576420
vt 0.966856 0.576796
vt 0.966742 0.576796
vt 0.967864 0.576452
vt 0.967963 0.576452
vt 0.967963 0.576828
vt 0.967864 0.576828
vt 0.967174 0.580062
vt 0.967240 0.577800
vt 0.965981 0.577800
vt 0.966046 0.580062
vt 0.966046 0.581260
vt 0.965981 0.583522
vt 0.967240 0.583522
vt 0.967174 0.581260
vt 0.970066 0.577800
vt 0.970066 0.578998
vt 0.971194 0.578998
vt 0.971194 0.577800
vt 0.971703 0.580378
vt 0.970885 0.580378
vt 0.971703 0.581394
vt 0.970885 0.578998
vt 0.970066 0.580196
vt 0.970885 0.580196
vt 0.970885 0.580014
vt 0.971703 0.580014
vt 0.971703 0.578998
vt 0.966629 0.576420
vt 0.966742 0.576420
vt 0.966742 0.576796
vt 0.966629 0.576796
vt 0.967751 0.576077
vt 0.967864 0.576077
vt 0.967864 0.576452
vt 0.967751 0.576452
vt 0.967864 0.576828
vt 0.967751 0.576828
vt 0.967751 0.576452
vt 0.967864 0.576452
vt 0.967963 0.576452
vt 0.967864 0.576452
vt 0.967864 0.576077
vt 0.967963 0.576077
vt 0.966742 0.576420
vt 0.966856 0.576420
vt 0.966856 0.576796
vt 0.966742 0.576796
vt 0.967864 0.576452
vt 0.967963 0.576452
vt 0.967963 0.576828
vt 0.967864 0.576828
vn 0.0000 0.0000 1.0000
vn 0.0000 1.0000 -0.0054
vn 1.0000 0.0000 -0.0000
vn -0.0000 -1.0000 0.0054
vn -1.0000 0.0000 0.0000
vn 0.0000 0.0054 1.0000
vn 0.0000 1.0000 0.0000
vn 0.0000 -1.0000 0.0000
vn -0.0000 -0.0000 -1.0000
usemtl Material
s 1
f 2/1/1 4/2/1 3/3/1 1/4/1
f 6/5/1 8/6/1 7/7/1 5/8/1
f 9/9/2 10/10/2 12/11/2 11/12/2
f 11/13/3 12/14/3 16/15/3 15/16/3
f 15/17/4 16/18/4 14/19/4 13/20/4
f 13/21/5 14/22/5 10/23/5 9/24/5
f 17/25/2 18/26/2 20/27/2 19/28/2
f 16/29/6 12/30/6 10/31/6 14/32/6
f 19/33/3 20/34/3 24/35/3 23/36/3
f 21/37/5 22/38/5 18/39/5 17/40/5
f 24/35/6 20/41/6 18/42/6 22/38/6
f 49/43/7 25/44/7 26/45/7 50/46/7
f 51/47/8 52/48/8 31/49/8 30/50/8
f 28/51/5 53/52/5 55/53/5 29/54/5
f 26/45/5 31/49/5 52/55/5 50/56/5
f 49/57/3 51/58/3 30/50/3 25/44/3
f 33/59/3 36/60/3 47/61/3 46/62/3
f 38/63/3 39/64/3 41/65/3 48/66/3
f 40/67/5 37/68/5 44/69/5 45/70/5
f 37/71/1 33/72/1 46/73/1 44/74/1
f 35/75/5 34/76/5 43/77/5 42/78/5
f 34/79/1 38/80/1 48/81/1 43/82/1
f 28/83/1 49/84/1 50/85/1 27/86/1
f 32/87/1 52/88/1 51/89/1 29/90/1
f 29/90/1 51/89/1 49/84/1 28/83/1
f 27/86/1 50/85/1 52/88/1 32/87/1
f 54/91/1 56/92/1 55/93/1 53/94/1
f 27/95/8 54/96/8 53/52/8 28/97/8
f 32/98/3 56/92/3 54/99/3 27/100/3
f 29/101/7 55/102/7 56/103/7 32/98/7
f 31/49/9 26/45/9 25/44/9 30/50/9
f 41/65/9 39/64/9 35/75/9 42/78/9
f 47/61/9 36/60/9 40/67/9 45/70/9
f 57/104/3 60/105/3 71/106/3 70/107/3
f 62/108/3 63/109/3 65/110/3 72/111/3
f 64/112/5 61/113/5 68/114/5 69/115/5
f 61/116/1 57/117/1 70/118/1 68/119/1
f 59/120/5 58/121/5 67/122/5 66/123/5
f 58/124/1 62/125/1 72/126/1 67/127/1
f 65/110/9 63/109/9 59/120/9 66/123/9
f 71/106/9 60/105/9 64/112/9 69/115/9
f 64/112/8 60/105/8 57/117/8 61/113/8
f 40/67/8 36/60/8 33/72/8 37/68/8
f 35/75/8 39/64/8 38/80/8 34/76/8
f 59/120/8 63/109/8 62/125/8 58/121/8
f 23/36/4 24/35/4 22/38/4 21/37/4
